<svg width="58" height="63" viewBox="0 0 58 63" fill="none" xmlns="http://www.w3.org/2000/svg">
<path d="M25.2573 47.7153C29.7425 52.0088 34.8702 52.7348 40.4106 49.2825C46.1683 45.6947 47.5445 41.3684 45.3783 37.8921C42.8736 33.8726 38.4512 33.3103 29.5464 36.4461C17.8045 40.5956 8.41649 39.8096 2.59486 30.4669C-2.82062 21.7761 0.2877 10.7902 11.4771 3.81783C21.3629 -2.34227 33.1518 -1.09169 41.0091 7.88734L30.2543 14.589C26.4744 10.4592 21.3466 9.73321 16.5667 12.7117C11.5695 15.8256 10.4782 20.1252 12.6444 23.6015C15.0814 27.5124 20.2375 27.3158 28.0969 24.6807C40.1915 20.613 49.5795 21.399 55.4011 30.7417C61.0196 39.7584 56.9336 51.3535 46.1787 58.0552C35.2066 64.8922 22.928 64.55 14.611 54.3492L25.2573 47.7153Z" fill="#FF57D5"/>
</svg>
